<?xml version="1.0" encoding="UTF-8" standalone="no"?>
<svg
   xmlns:dc="http://purl.org/dc/elements/1.1/"
   xmlns:cc="http://creativecommons.org/ns#"
   xmlns:rdf="http://www.w3.org/1999/02/22-rdf-syntax-ns#"
   xmlns:svg="http://www.w3.org/2000/svg"
   xmlns="http://www.w3.org/2000/svg"
   version="1.1"
   id="InfluxData_Symbol_Only"
   x="0px"
   y="0px"
   viewBox="-173 -143 92.247841 93.677818"
   xml:space="preserve">
<style
   type="text/css"
   id="style498">
	.st0{fill:none;}
	.st1{fill:#FFFFFF;}
</style>
<rect
   id="Background"
   x="-204.44238"
   y="-168"
   class="st0"
   width="900"
   height="900" />
<path
   id="Cuboctahedron"
   class="st1"
   d="m -80.902841,-86.4737 -8.926946,-38.87079 c -0.506962,-2.12703 -2.435623,-4.25407 -4.562661,-4.87124 l -40.799442,-12.58589 C -135.69886,-143 -136.30501,-143 -136.92218,-143 c -1.73028,0 -3.54874,0.70534 -4.77206,1.73028 l -29.22748,27.19964 c -1.62007,1.42169 -2.43562,4.26509 -1.92866,6.29294 l 9.54412,41.614996 c 0.50696,2.127037 2.43562,4.265096 4.56266,4.871246 l 38.15442,11.770343 c 0.50697,0.198377 1.11312,0.198377 1.73029,0.198377 1.73028,0 3.54874,-0.705339 4.77206,-1.730285 l 31.255327,-29.018083 c 1.631097,-1.520887 2.435624,-4.265096 1.928662,-6.403154 z m -50.023959,-47.09239 28.00416,8.62938 c 1.11311,0.30858 1.11311,0.81555 0,1.11311 l -14.71293,3.35036 c -1.11311,0.30859 -2.634,-0.19838 -3.44955,-1.01392 l -10.24945,-11.06501 c -0.91474,-0.90371 -0.71636,-1.31149 0.40777,-1.01392 z m 17.44612,50.244373 c 0.30858,1.113113 -0.40778,1.730284 -1.52089,1.421699 l -30.2414,-9.33472 c -1.11312,-0.308586 -1.32251,-1.223322 -0.50697,-2.027849 l 23.14394,-21.523853 c 0.81554,-0.81555 1.73028,-0.50697 2.02785,0.60615 z m -49.82558,-27.409033 24.56563,-22.83534 c 0.81555,-0.81555 2.12704,-0.70534 2.94259,0.0992 l 12.2773,13.30225 c 0.81555,0.81554 0.70534,2.12703 -0.0992,2.94258 l -24.56563,22.835349 c -0.81555,0.815548 -2.12704,0.705339 -2.94258,-0.09919 l -12.27731,-13.291229 c -0.81555,-0.91474 -0.70534,-2.23725 0.0992,-2.95361 z m 5.99538,36.23679 -6.49132,-28.52214 c -0.30859,-1.11311 0.19837,-1.32251 0.91473,-0.50696 l 10.24946,11.065 c 0.81555,0.815548 1.11311,2.435623 0.81555,3.548736 l -4.4745,14.415364 c -0.30858,1.113113 -0.81554,1.113113 -1.01392,0 z m 35.91718,16.641589 -32.07088,-9.841681 c -1.11311,-0.308586 -1.73028,-1.520887 -1.4217,-2.634 l 5.37821,-17.258761 c 0.30859,-1.113113 1.52089,-1.730285 2.634,-1.421699 l 32.07088,9.841682 c 1.11311,0.308586 1.73028,1.520887 1.4217,2.634 l -5.37821,17.258761 c -0.39676,1.124134 -1.50987,1.730284 -2.634,1.421698 z m 28.41193,-23.342309 -21.40263,19.892761 c -0.81555,0.815549 -1.2123,0.506963 -0.91473,-0.60615 l 4.46347,-14.415364 c 0.30859,-1.113113 1.52089,-2.237247 2.634,-2.435623 l 14.712928,-3.35036 c 1.124134,-0.297565 1.32251,0.209398 0.506962,0.914736 z m 2.336435,-4.254075 -17.655515,4.055699 c -1.11311,0.308586 -2.23725,-0.407774 -2.53481,-1.520887 l -7.50525,-32.677027 c -0.30858,-1.11311 0.40778,-2.23725 1.52089,-2.53481 l 17.655514,-4.0557 c 1.113113,-0.30859 2.237247,0.40777 2.534811,1.52089 l 7.505247,32.677024 c 0.308586,1.212301 -0.396753,2.325414 -1.520887,2.534811 z"
   style="stroke-width:0.110209" />
</svg>
