<svg width="102" height="100" viewBox="0 0 102 100" fill="none" xmlns="http://www.w3.org/2000/svg">
<path d="M48.209 67.5616H53.7911V52.4366H67.8309V47.0588H53.7911V31.9338H48.209V47.0588H34.3383V52.4366H48.209V67.5616Z" fill="white"/>
<path d="M22.3284 89.409H27.0647V75.9646H39.5821V71.7632H27.0647V58.1506H22.3284V71.7632H9.81094V75.9646H22.3284V89.409Z" fill="white"/>
<path d="M74.9353 40.8411H79.6716V27.3966H92.3582V23.3633H79.6716V9.75073H74.9353V23.3633H62.4179V27.3966H74.9353V40.8411Z" fill="white"/>
<path d="M49.0547 99.9966H53.1144V90.4174H61.7413V86.8883H53.1144V77.3091H49.0547V86.8883H40.597V90.4174H49.0547V99.9966Z" fill="white"/>
<path d="M22.4975 40.8411H26.8955V27.2285H39.5821V23.3633H26.8955V9.75073H22.4975V23.3633H9.81094V27.2285H22.4975V40.8411Z" fill="white"/>
<path d="M89.3134 61.0077H93.3731V51.5966H102V47.8994H93.3731V38.4883H89.3134V47.8994H80.8557V51.5966H89.3134V61.0077Z" fill="white"/>
<path fill-rule="evenodd" clip-rule="evenodd" d="M74.9353 89.409H79.6716V75.9646H92.3582V71.7632H79.6716V58.1506H74.9353V71.7632H62.4179V75.9646H74.9353V89.409Z" fill="white"/>
<path d="M61.0647 12.1049V9.24795H52.607V0.00488281H49.5622V9.24795H41.1045V12.1049H49.5622V21.348H52.607V12.1049H61.0647ZM8.45771 60.3369H11.5025V51.0938H19.9602V48.2369H11.5025V39.1619H8.45771V48.2369H0V51.2619L8.45771 51.0938V60.3369Z" fill="white"/>
</svg>
